<svg width="630" height="159" viewBox="0 0 630 159" fill="none" xmlns="http://www.w3.org/2000/svg">
<g clip-path="url(#clip0_17_74)">
<path d="M595.335 82.9104C620.451 86.5682 624.597 105.833 625.816 122.902C627.279 141.435 628.255 157.042 628.255 157.042H600.943C600.943 157.042 599.968 143.63 599.48 131.681C598.261 110.71 591.677 100.468 579.484 96.3223C570.705 93.3961 561.195 93.6399 541.443 93.6399H491.697V156.798V157.042H463.654V0.488159H561.195C577.533 0.975858 592.896 0.975861 604.357 6.09678C620.939 13.4124 630.693 26.8243 629.962 47.5517C629.23 68.7669 613.136 80.228 595.335 82.9104ZM564.365 71.6932C590.945 70.4739 602.65 63.646 602.162 45.8448C601.919 25.8488 586.8 21.2156 558.513 20.9718C541.443 20.9718 503.402 20.9718 491.697 20.9718V71.937L564.365 71.6932Z" fill="#1C1A1B"/>
<path d="M436.891 157.042H410.311V3.41431H436.891V157.042Z" fill="#1C1A1B"/>
<path d="M291.254 0C348.803 0 390.014 31.457 390.014 79.2522C390.014 125.096 350.022 158.748 291.254 158.748C233.217 158.748 192.737 125.096 192.737 79.2522C192.737 31.7009 234.924 0 291.254 0ZM291.01 137.289C338.805 137.289 360.508 109.734 360.508 78.2768C360.508 46.8197 337.586 20.4836 291.254 20.4836C249.311 20.4836 221.512 46.8197 221.512 78.2768C221.512 109.734 250.043 137.289 291.01 137.289Z" fill="#1C1A1B"/>
<path d="M146.068 3.41431H172.404V157.042H146.068L26.5799 37.7976V157.042H0V3.41431H29.0185L146.068 120.951V3.41431Z" fill="#1C1A1B"/>
</g>
<defs>
<clipPath id="clip0_17_74">
<rect width="630" height="159" fill="white"/>
</clipPath>
</defs>
</svg>
